<svg xmlns="http://www.w3.org/2000/svg" id="Lager_2" data-name="Lager 2" viewBox="0 0 4346.13 4000"><defs><style>.cls-1{fill:none;}.cls-2{fill:#18427c;}.cls-3{fill:#6cc9ee;}.cls-4{fill:#009fc4;}.cls-5{fill:#cae9e4;}.cls-6,.cls-7{fill:#d5d6d8;}.cls-7{opacity:0.54;}.cls-8{fill:#236c9d;}.cls-9{fill:#00a5df;}.cls-10{fill:#98d8e2;}.cls-11{fill:#2a89c9;}.cls-12{fill:#bce6fc;}.cls-13{fill:#0b2c5c;}</style></defs><title>kk_logo_SVG</title><polygon class="cls-1" points="2353.35 1994.39 2696.32 2435.01 3091.53 1982.79 2702.98 1531.76 2341.34 1978.97 2353.35 1994.39"/><polygon class="cls-2" points="830.36 447.7 830.36 1462.64 1574.18 447.7 830.36 447.7"/><polygon class="cls-3" points="1574.18 447.7 830.36 1462.64 1574.18 2629.66 1574.18 1982.79 1574.18 1462.64 1574.18 447.7"/><polygon class="cls-4" points="830.36 2629.66 830.36 3545.59 1574.18 2629.66 830.36 1462.64 830.36 2629.66"/><polygon class="cls-5" points="1574.18 3545.59 1574.18 2629.66 830.36 3545.59 1574.18 3545.59"/><polygon class="cls-6" points="2621.61 447.7 1769.08 447.7 2291.17 1053.73 2693.85 531.96 2621.61 447.7"/><polygon class="cls-7" points="1943.88 2470.48 1574.18 1982.79 2278.99 2912.54 2278.99 2912.54 1943.88 2470.48"/><polygon class="cls-7" points="2353.35 1994.39 2341.34 1978.97 1943.88 2470.48 2341.34 1978.97 2353.35 1994.39"/><polygon class="cls-7" points="2690.86 3455.87 2758.87 3545.59 2758.87 3545.59 2690.86 3455.87 2690.86 3455.87"/><polygon class="cls-7" points="3568.62 447.7 3568.62 447.7 3568.61 447.71 3568.62 447.7"/><polygon class="cls-7" points="2758.87 447.7 3298.71 447.7 2758.87 447.7 2693.85 531.96 2693.85 531.96 2758.87 447.7"/><polygon class="cls-7" points="2291.17 1053.73 1574.18 1982.79 2291.17 1053.73 2291.17 1053.73"/><polygon class="cls-6" points="2693.85 531.96 2693.85 531.96 2291.17 1053.73 2291.17 1053.73 2693.85 531.96"/><polygon class="cls-7" points="2693.85 531.96 2693.85 531.96 2291.17 1053.73 2291.17 1053.73 2693.85 531.96"/><polygon class="cls-8" points="2758.87 1462.64 3112.14 1019.86 3568.61 447.71 3568.62 447.7 3568.62 447.7 3298.71 447.7 2758.87 447.7 2758.87 1462.64"/><polygon class="cls-9" points="2758.87 1462.64 2758.87 447.7 2693.85 531.96 2291.17 1053.73 1574.18 1982.79 2758.87 1462.64"/><polygon class="cls-10" points="2341.34 1978.97 2702.98 1531.76 2758.87 1462.64 1574.18 1982.79 1943.88 2470.48 2341.34 1978.97"/><polygon class="cls-11" points="1943.88 2470.48 2278.99 2912.54 2517.44 2639.7 2341.34 1978.97 1943.88 2470.48"/><polygon class="cls-11" points="2690.86 3455.87 2758.87 3545.59 2724.48 3416.53 2690.86 3455.87"/><polygon class="cls-12" points="2724.48 3416.53 2758.87 3545.59 2767.52 3366.17 2724.48 3416.53"/><polygon class="cls-12" points="2341.34 1978.97 2517.44 2639.7 2696.32 2435.01 2353.35 1994.39 2341.34 1978.97"/><polygon class="cls-13" points="2767.52 3366.17 2758.87 3545.59 3560.79 3545.59 3560.79 3545.59 3109.58 2965.92 2767.52 3366.17"/><polygon class="cls-6" points="2724.48 3416.53 2767.52 3366.17 3109.58 2965.92 3943.76 1989.86 3112.14 1019.86 2758.87 1462.64 2702.98 1531.76 3091.53 1982.79 2696.32 2435.01 2517.44 2639.7 2278.99 2912.54 2278.99 2912.54 1725.75 3545.59 2614.18 3545.59 2690.86 3455.87 2690.86 3455.87 2724.48 3416.53"/></svg>